<?xml version="1.0" encoding="UTF-8" standalone="no"?>
<svg
   xmlns:dc="http://purl.org/dc/elements/1.1/"
   xmlns:cc="http://creativecommons.org/ns#"
   xmlns:rdf="http://www.w3.org/1999/02/22-rdf-syntax-ns#"
   xmlns:svg="http://www.w3.org/2000/svg"
   xmlns="http://www.w3.org/2000/svg"
   width="1598.2112"
   height="511.11057"
   viewBox="0 0 422.86002 135.23134"
   version="1.1"
   id="svg1">
  <g
     id="layer1"
     transform="translate(-59.503302,-0.11766293)">
    <g
       id="g1"
       transform="translate(29.347961)">
      <path
         id="path24"
         style="fill:#a1a1aa;stroke:#a1a1aa;stroke-width:9.41702"
         d="M 115.52926,67.733307 A 13.997343,13.997343 0 0 1 101.53191,81.73065 13.997343,13.997343 0 0 1 87.534571,67.733307 13.997343,13.997343 0 0 1 101.53191,53.735964 13.997343,13.997343 0 0 1 115.52926,67.733307 Z" />
      <path
         id="path25"
         style="fill:none;stroke:#a1a1aa;stroke-width:15.0647"
         d="M 165.90641,68.185707 A 64.10936,59.630939 0 0 1 101.79705,127.81665 64.10936,59.630939 0 0 1 37.687691,68.185707 64.10936,59.630939 0 0 1 101.79705,8.5547676 64.10936,59.630939 0 0 1 165.90641,68.185707 Z" />
      <path
         style="fill:#a1a1aa;stroke-width:4.30422"
         d="M 309.72349,135.33357 H 286.46186 L 233.15017,75.323978 219.75436,89.624907 V 135.33357 H 201.83294 V 0.56089372 h 17.92142 V 70.88888 L 285.19469,0.56089372 h 21.72293 L 246.727,63.91944 Z"
         id="text26"
         aria-label="K" />
      <path
         id="ellipse28"
         style="fill:none;stroke:#a1a1aa;stroke-width:15.0647"
         d="M 445.48305,67.280952 A 64.10936,59.630939 0 0 1 381.37369,126.91189 64.10936,59.630939 0 0 1 317.26433,67.280952 64.10936,59.630939 0 0 1 381.37369,7.650013 64.10936,59.630939 0 0 1 445.48305,67.280952 Z" />
    </g>
  </g>
</svg>
