<?xml version="1.0" encoding="UTF-8" standalone="no"?>
<svg xmlns:osb="http://www.openswatchbook.org/uri/2009/osb" xmlns:dc="http://purl.org/dc/elements/1.1/" xmlns:cc="http://creativecommons.org/ns#" xmlns:rdf="http://www.w3.org/1999/02/22-rdf-syntax-ns#" xmlns:svg="http://www.w3.org/2000/svg" xmlns="http://www.w3.org/2000/svg" xmlns:xlink="http://www.w3.org/1999/xlink" width="2048.0066" height="432.09189" viewBox="0 0 541.86838 114.32431" version="1.1" id="svg1">
  <g id="layer1" transform="translate(-48.023618,-103.35774)" style="opacity:1">
    <g id="g1">
      <path d="M 80.181089,158.35603 H 63.230796 v 33.72026 H 48.023618 v -87.5164 h 30.775 q 15.14707,0 23.381782,6.79214 8.23472,6.79214 8.23472,19.65512 0,8.77569 -4.26763,14.72632 -4.20752,5.89053 -11.78105,9.07622 l 19.65513,36.48521 v 0.78139 H 97.732455 Z M 63.230796,146.15422 h 15.627929 q 7.69375,0 12.021484,-3.84687 4.327735,-3.90698 4.327735,-10.63901 0,-7.03257 -4.027197,-10.87945 -3.96709,-3.84687 -11.90127,-3.96709 H 63.230796 Z" style="fill:#94A3B8;fill-opacity:1" id="path29"/>
      <path d="m 152.18978,193.27844 q -13.88481,0 -22.54028,-8.71557 -8.59536,-8.77569 -8.59536,-23.32168 v -1.80323 q 0,-9.7374 3.72666,-17.37104 3.78676,-7.69375 10.5789,-11.96138 6.79214,-4.26762 15.14707,-4.26762 13.28374,0 20.49663,8.47514 7.273,8.47515 7.273,23.98286 v 5.89053 h -42.49595 q 0.66119,8.05439 5.34956,12.74277 4.74849,4.68838 11.90127,4.68838 10.03794,0 16.34922,-8.1145 l 7.87407,7.51343 q -3.90698,5.83042 -10.45869,9.07622 -6.4916,3.18569 -14.6061,3.18569 z m -1.74312,-55.71958 q -6.01074,0 -9.7374,4.20752 -3.66655,4.20752 -4.68838,11.72095 h 27.82974 v -1.08193 q -0.48086,-7.33311 -3.90698,-11.05977 -3.42613,-3.78677 -9.49698,-3.78677 z" style="fill:#94A3B8;fill-opacity:1" id="path31"/>
      <path d="m 187.11219,159.07732 q 0,-15.14707 7.09268,-24.16318 7.15278,-9.07622 18.93384,-9.07622 11.11987,0 17.49126,7.75385 l 0.66118,-6.55171 h 13.16352 v 63.05269 q 0,12.80288 -7.99428,20.19609 -7.93418,7.39322 -21.45835,7.39322 -7.15279,0 -14.00503,-3.00538 -6.79214,-2.94526 -10.33848,-7.75385 l 6.91235,-8.77569 q 6.73203,7.99429 16.58965,7.99429 7.273,0 11.48052,-3.96709 4.20752,-3.90698 4.20752,-11.54062 v -4.38785 q -6.31128,7.03257 -16.83008,7.03257 -11.42041,0 -18.69341,-9.07622 -7.21289,-9.07622 -7.21289,-25.1249 z m 14.546,1.26226 q 0,9.79751 3.96709,15.4476 4.0272,5.58999 11.11987,5.58999 8.83579,0 13.10342,-7.57353 v -28.61113 q -4.14741,-7.39322 -12.9832,-7.39322 -7.21289,0 -11.24009,5.71021 -3.96709,5.7102 -3.96709,16.83008 z" style="fill:#94A3B8;fill-opacity:1" id="path33"/>
      <path d="m 311.95531,153.00647 h -35.94424 v 26.92812 h 42.01509 v 12.1417 h -57.22227 v -87.5164 h 56.80151 v 12.26191 h -41.59433 v 24.16319 h 35.94424 z" style="fill:#94A3B8;fill-opacity:1" id="path35"/>
      <path d="m 352.46771,148.43831 12.38213,-21.39825 h 16.229 l -19.89555,32.03726 20.55673,32.99897 h -16.10879 l -12.9832,-22.23974 -12.92309,22.23974 h -16.22901 l 20.55674,-32.99897 -19.83545,-32.03726 h 16.10879 z" style="fill:#94A3B8;fill-opacity:1" id="path37"/>
      <path d="m 407.28567,140.62434 h 9.25655 q 6.61181,0 9.7975,-3.30591 3.1857,-3.3059 3.1857,-8.77568 0,-5.28945 -3.1857,-8.23472 -3.12558,-2.94526 -8.65546,-2.94526 -4.98892,0 -8.35494,2.76494 -3.36601,2.70483 -3.36601,7.09268 h -17.37105 q 0,-6.85225 3.66656,-12.26192 3.72666,-5.46977 10.33847,-8.53525 6.67193,-3.06548 14.66621,-3.06548 13.88482,0 21.75889,6.67192 7.87407,6.61182 7.87407,18.27266 0,6.01074 -3.66655,11.05977 -3.66655,5.04902 -9.61719,7.75385 7.39322,2.64473 10.99966,7.93418 3.66655,5.28946 3.66655,12.50235 0,11.66084 -8.53525,18.6934 -8.47515,7.03257 -22.48018,7.03257 -13.10341,0 -21.45834,-6.91235 -8.29483,-6.91235 -8.29483,-18.27266 h 17.37105 q 0,4.92881 3.66655,8.0544 3.72666,3.12558 9.13633,3.12558 6.19106,0 9.67729,-3.2458 3.54634,-3.30591 3.54634,-8.71557 0,-13.10342 -14.42578,-13.10342 h -9.19644 z" style="fill:#94A3B8;fill-opacity:1;stroke-width:1.64863" id="path39"/>
      <path d="m 507.42465,103.65828 v 14.30556 h -1.68301 q -11.78105,0.18033 -18.99394,6.13096 -7.15279,5.95064 -8.59536,16.52954 6.97246,-7.09267 17.61147,-7.09267 11.42041,0 18.15244,8.17461 6.73203,8.1746 6.73203,21.51845 0,8.53526 -3.72666,15.44761 -3.66655,6.91235 -10.45869,10.75923 -6.73203,3.84687 -15.26728,3.84687 -13.82471,0 -22.35997,-9.61719 -8.47514,-9.61718 -8.47514,-25.66586 v -6.25118 q 0,-14.24545 5.34956,-25.1249 5.40967,-10.93955 15.44761,-16.89018 10.09804,-6.01075 23.38178,-6.07085 z m -16.95029,43.81831 q -4.20752,0 -7.63365,2.22397 -3.42612,2.16387 -5.04902,5.77031 v 5.28946 q 0,8.71557 3.42612,13.64438 3.42613,4.8687 9.61719,4.8687 5.58999,0 9.01611,-4.38784 3.48623,-4.44795 3.48623,-11.48052 0,-7.15278 -3.48623,-11.54062 -3.48623,-4.38784 -9.37675,-4.38784 z" style="fill:#94A3B8;fill-opacity:1;stroke-width:1.64863" id="path41"/>
      <path d="m 589.89201,155.89163 q 0,18.15244 -7.51342,27.76962 -7.51343,9.61719 -21.99932,9.61719 -14.30557,0 -21.8791,-9.43686 -7.57354,-9.43687 -7.75386,-27.04834 v -16.10879 q 0,-18.33276 7.57354,-27.82974 7.63364,-9.49697 21.9392,-9.49697 14.30557,0 21.87911,9.43687 7.57353,9.37675 7.75385,26.98823 z m -17.37104,-17.67159 q 0,-10.87944 -3.00537,-15.80825 -2.94527,-4.98891 -9.25655,-4.98891 -6.13095,0 -9.07622,4.74848 -2.88515,4.68838 -3.06547,14.72632 v 21.27803 q 0,10.69912 2.88515,15.92847 2.94527,5.16923 9.37676,5.16923 6.37139,0 9.19644,-4.98891 2.82504,-4.98892 2.94526,-15.26729 z" style="fill:#94A3B8;fill-opacity:1;stroke-width:1.64863" id="path43"/>
    </g>
  </g>
</svg>