<?xml version="1.0" encoding="UTF-8" standalone="no"?>
<svg
   xmlns:dc="http://purl.org/dc/elements/1.1/"
   xmlns:cc="http://creativecommons.org/ns#"
   xmlns:rdf="http://www.w3.org/1999/02/22-rdf-syntax-ns#"
   xmlns:svg="http://www.w3.org/2000/svg"
   xmlns="http://www.w3.org/2000/svg"
   width="2048"
   height="512"
   viewBox="0 0 541.86665 135.46667"
   version="1.1"
   id="svg1">
  <g
     id="layer1"
     transform="translate(2.5250365e-7,-67.733329)">
    <g
       id="g1"
       transform="matrix(0.30465606,0,0,0.30465606,-14.808148,52.925185)">
      <path
         id="rect930"
         style="opacity:0.5;fill:#94A3B8;fill-opacity:1;stroke-width:0.967862"
         d="M 76.415195,379.92574 49.749654,228.69794 c -7.102273,-40.27899 19.606779,-66.98805 59.885766,-59.88578 l 151.22781,26.66554 c 40.27898,7.10228 78.42347,45.24677 85.52574,85.52576 l 26.66554,151.22779 c 7.10227,40.279 -19.60679,66.98805 -59.88577,59.88577 L 161.94094,465.45148 C 121.66195,458.34921 83.517468,420.20473 76.415195,379.92574 Z" />
      <path
         id="rect948"
         style="opacity:0.5;fill:#94A3B8;fill-opacity:1;stroke-width:0.967862"
         d="M 352.85623,452.42951 201.62843,425.76397 C 161.34944,418.6617 123.20496,380.51722 116.10268,340.23823 L 89.437143,189.01043 C 82.33487,148.73144 109.04392,122.02238 149.32292,129.12465 l 151.22779,26.66554 c 40.27899,7.10228 78.42347,45.24677 85.52575,85.52576 L 412.742,392.54374 c 7.10227,40.279 -19.60678,66.98805 -59.88577,59.88577 z" />
      <path
         id="rect931"
         style="opacity:0.5;fill:#94A3B8;fill-opacity:1;stroke-width:0.967862"
         d="m 392.54374,412.74201 -151.2278,-26.66554 c -40.27899,-7.10228 -78.42348,-45.24676 -85.52575,-85.52575 l -26.66554,-151.2278 c -7.10228,-40.27899 19.60678,-66.988043 59.88577,-59.885769 l 151.2278,26.665539 c 40.27899,7.10227 78.42347,45.24676 85.52574,85.52575 l 26.66555,151.2278 c 7.10227,40.27899 -19.60678,66.98804 -59.88577,59.88577 z" />
      <path
         id="rect950"
         style="opacity:1;fill:#94A3B8;fill-opacity:1;stroke-width:0.967862"
         d="M 432.23124,373.0545 281.00345,346.38896 c -40.279,-7.10227 -78.42348,-45.24676 -85.52576,-85.52575 l -26.66554,-151.2278 c -7.10227,-40.278987 19.60679,-66.98804 59.88578,-59.885767 l 151.2278,26.665542 c 40.27899,7.102273 78.42347,45.246755 85.52574,85.525745 l 26.66554,151.2278 c 7.10228,40.27899 -19.60678,66.98804 -59.88577,59.88577 z" />
    </g>
    <g
       id="g2">
      <path
         d="m 175.11587,138.1125 0.7717,5.29166 1.12999,-4.76801 7.9375,-28.00171 h 4.46484 l 7.74456,28.00171 1.10243,4.85069 0.85439,-5.4019 6.22872,-27.4505 h 5.31923 l -9.72894,40.12844 h -4.82313 l -8.26823,-29.24195 -0.63389,-3.05924 -0.6339,3.05924 -8.57139,29.24195 h -4.82313 l -9.70138,-40.12844 h 5.29166 z"
         style="fill:#94A3B8;stroke-width:0.264583"
         id="path22" />
      <path
         d="m 227.20567,151.31409 q -6.06336,0 -9.86674,-3.96874 -3.80338,-3.99631 -3.80338,-10.66601 v -0.93707 q 0,-4.43728 1.6812,-7.90993 1.70877,-3.50021 4.74045,-5.45703 3.05924,-1.98437 6.61458,-1.98437 5.81531,0 9.03992,3.83094 3.22461,3.83095 3.22461,10.96918 v 2.12218 h -20.20203 q 0.11025,4.40971 2.56315,7.13823 2.48047,2.70095 6.28385,2.70095 2.70095,0 4.57508,-1.10243 1.87414,-1.10243 3.27973,-2.92144 l 3.11437,2.42535 q -3.74826,5.76019 -11.24479,5.76019 z m -0.63389,-26.73392 q -3.08681,0 -5.18142,2.25998 -2.09462,2.23242 -2.59071,6.28385 h 14.93792 v -0.38585 q -0.22049,-3.88606 -2.09462,-6.00824 -1.87413,-2.14974 -5.07117,-2.14974 z"
         style="fill:#94A3B8;stroke-width:0.264583"
         id="path24" />
      <path
         d="m 269.95239,136.18325 q 0,6.83506 -3.14193,10.99673 -3.14192,4.13411 -8.43358,4.13411 -5.64996,0 -8.73676,-3.9963 l -0.24805,3.44509 h -4.68532 v -42.3333 h 5.09874 v 15.7923 q 3.0868,-3.83094 8.51626,-3.83094 5.42947,0 8.51627,4.10655 3.11437,4.10655 3.11437,11.24478 z m -5.09874,-0.57878 q 0,-5.20898 -2.01193,-8.04774 -2.01194,-2.83875 -5.78776,-2.83875 -5.04362,0 -7.24847,4.68532 v 12.89843 q 2.34266,4.68533 7.30359,4.68533 3.66558,0 5.70508,-2.83876 2.03949,-2.83876 2.03949,-8.54383 z"
         style="fill:#94A3B8;stroke-width:0.264583"
         id="path26" />
      <path
         d="m 296.43826,135.05326 v 15.70962 h -5.29166 v -40.12844 h 14.80011 q 6.58702,0 10.30772,3.36241 3.74826,3.36241 3.74826,8.90212 0,5.84288 -3.66558,9.01236 -3.63801,3.14193 -10.44552,3.14193 z m 0,-4.32704 h 9.50845 q 4.24436,0 6.50434,-1.98437 2.25998,-2.01194 2.25998,-5.78776 0,-3.5829 -2.25998,-5.73264 -2.25998,-2.14973 -6.20117,-2.23242 h -9.81162 z"
         style="fill:#94A3B8;stroke-width:0.264583"
         id="path28" />
      <path
         d="m 344.03567,150.76288 q -0.44098,-0.88195 -0.71658,-3.14193 -3.55534,3.69314 -8.48871,3.69314 -4.40972,0 -7.24848,-2.48046 -2.81119,-2.50803 -2.81119,-6.33897 0,-4.65777 3.52777,-7.22092 3.55534,-2.59071 9.97699,-2.59071 h 4.96093 v -2.34266 q 0,-2.67339 -1.59852,-4.24436 -1.59852,-1.59852 -4.71289,-1.59852 -2.72851,0 -4.57508,1.37804 -1.84657,1.37804 -1.84657,3.33485 h -5.1263 q 0,-2.23242 1.57097,-4.29948 1.59852,-2.09461 4.29947,-3.30729 2.72852,-1.21267 5.98068,-1.21267 5.15386,0 8.0753,2.59071 2.92144,2.56315 3.03168,7.08311 v 13.72525 q 0,4.10655 1.04731,6.5319 v 0.44097 z m -8.46115,-3.88607 q 2.39778,0 4.54752,-1.24023 2.14974,-1.24023 3.11436,-3.22461 v -6.11848 h -3.9963 q -9.37066,0 -9.37066,5.48459 0,2.39778 1.59853,3.74826 1.59852,1.35047 4.10655,1.35047 z"
         style="fill:#94A3B8;stroke-width:0.264583"
         id="path30" />
      <path
         d="m 355.1702,135.60447 q 0,-6.97287 3.22461,-11.07942 3.2246,-4.13411 8.54383,-4.13411 5.45702,0 8.51627,3.8585 l 0.24804,-3.30729 h 4.65777 v 29.10415 q 0,5.78776 -3.44509,9.1226 -3.41754,3.33485 -9.20529,3.33485 -3.22461,0 -6.31141,-1.37803 -3.08681,-1.37804 -4.71289,-3.77582 l 2.64583,-3.05925 q 3.27973,4.05143 8.02018,4.05143 3.7207,0 5.78775,-2.09461 2.09462,-2.09462 2.09462,-5.898 v -2.56315 q -3.05924,3.52777 -8.3509,3.52777 -5.23655,0 -8.48871,-4.21679 -3.22461,-4.21679 -3.22461,-11.49283 z m 5.1263,0.57878 q 0,5.04361 2.06705,7.93749 2.06706,2.86632 5.78776,2.86632 4.82313,0 7.08311,-4.38216 v -13.61501 q -2.34266,-4.27191 -7.02799,-4.27191 -3.7207,0 -5.81532,2.89387 -2.09461,2.89388 -2.09461,8.5714 z"
         style="fill:#94A3B8;stroke-width:0.264583"
         id="path32" />
      <path
         d="m 400.39739,151.31409 q -6.06337,0 -9.86675,-3.96874 -3.80338,-3.99631 -3.80338,-10.66601 v -0.93707 q 0,-4.43728 1.6812,-7.90993 1.70877,-3.50021 4.74045,-5.45703 3.05924,-1.98437 6.61458,-1.98437 5.81532,0 9.03992,3.83094 3.22461,3.83095 3.22461,10.96918 v 2.12218 h -20.20203 q 0.11025,4.40971 2.56315,7.13823 2.48047,2.70095 6.28385,2.70095 2.70096,0 4.57509,-1.10243 1.87413,-1.10243 3.27972,-2.92144 l 3.11437,2.42535 q -3.74826,5.76019 -11.24478,5.76019 z m -0.6339,-26.73392 q -3.0868,0 -5.18142,2.25998 -2.09462,2.23242 -2.59071,6.28385 h 14.93792 v -0.38585 q -0.22048,-3.88606 -2.09461,-6.00824 -1.87414,-2.14974 -5.07118,-2.14974 z"
         style="fill:#94A3B8;stroke-width:0.264583"
         id="path34" />
      <path
         d="m 432.69858,150.76288 v -40.12844 h 11.32747 q 5.23654,0 9.26041,2.3151 4.02387,2.3151 6.20116,6.58702 2.20486,4.27191 2.23242,9.81162 v 2.56315 q 0,5.67751 -2.20485,9.94943 -2.1773,4.27191 -6.25629,6.55946 -4.05143,2.28754 -9.45334,2.34266 z m 5.29167,-35.77385 v 31.44681 h 5.56727 q 6.11848,0 9.50845,-3.80338 3.41753,-3.80338 3.41753,-10.83137 v -2.34267 q 0,-6.83506 -3.2246,-10.61088 -3.19705,-3.80338 -9.09505,-3.85851 z"
         style="fill:#94A3B8;stroke-width:0.264583"
         id="path36" />
      <path
         d="m 487.35152,150.76288 q -0.44097,-0.88195 -0.71658,-3.14193 -3.55533,3.69314 -8.4887,3.69314 -4.40972,0 -7.24848,-2.48046 -2.8112,-2.50803 -2.8112,-6.33897 0,-4.65777 3.52778,-7.22092 3.55534,-2.59071 9.97699,-2.59071 h 4.96093 v -2.34266 q 0,-2.67339 -1.59852,-4.24436 -1.59852,-1.59852 -4.71289,-1.59852 -2.72851,0 -4.57508,1.37804 -1.84657,1.37804 -1.84657,3.33485 h -5.1263 q 0,-2.23242 1.57096,-4.29948 1.59853,-2.09461 4.29948,-3.30729 2.72851,-1.21267 5.98068,-1.21267 5.15386,0 8.0753,2.59071 2.92144,2.56315 3.03168,7.08311 v 13.72525 q 0,4.10655 1.04731,6.5319 v 0.44097 z m -8.46114,-3.88607 q 2.39778,0 4.54752,-1.24023 2.14974,-1.24023 3.11436,-3.22461 v -6.11848 h -3.99631 q -9.37065,0 -9.37065,5.48459 0,2.39778 1.59852,3.74826 1.59853,1.35047 4.10656,1.35047 z"
         style="fill:#94A3B8;stroke-width:0.264583"
         id="path38" />
      <path
         d="m 506.61648,113.72124 v 7.22091 h 5.56727 v 3.94119 h -5.56727 v 18.49326 q 0,1.79145 0.74414,2.70095 0.74414,0.88195 2.53558,0.88195 0.88195,0 2.42535,-0.33073 v 4.13411 q -2.01193,0.55121 -3.91363,0.55121 -3.41753,0 -5.15386,-2.06705 -1.73632,-2.06706 -1.73632,-5.87044 v -18.49326 h -5.42947 v -3.94119 h 5.42947 v -7.22091 z"
         style="fill:#94A3B8;stroke-width:0.264583"
         id="path40" />
      <path
         d="m 536.51989,150.76288 q -0.44097,-0.88195 -0.71658,-3.14193 -3.55534,3.69314 -8.48871,3.69314 -4.40972,0 -7.24847,-2.48046 -2.8112,-2.50803 -2.8112,-6.33897 0,-4.65777 3.52777,-7.22092 3.55534,-2.59071 9.97699,-2.59071 h 4.96094 v -2.34266 q 0,-2.67339 -1.59853,-4.24436 -1.59852,-1.59852 -4.71288,-1.59852 -2.72852,0 -4.57509,1.37804 -1.84657,1.37804 -1.84657,3.33485 h -5.12629 q 0,-2.23242 1.57096,-4.29948 1.59852,-2.09461 4.29947,-3.30729 2.72852,-1.21267 5.98069,-1.21267 5.15385,0 8.07529,2.59071 2.92144,2.56315 3.03168,7.08311 v 13.72525 q 0,4.10655 1.04731,6.5319 v 0.44097 z m -8.46115,-3.88607 q 2.39779,0 4.54752,-1.24023 2.14974,-1.24023 3.11437,-3.22461 v -6.11848 h -3.99631 q -9.37065,0 -9.37065,5.48459 0,2.39778 1.59852,3.74826 1.59852,1.35047 4.10655,1.35047 z"
         style="fill:#94A3B8;stroke-width:0.264583"
         id="path42" />
    </g>
  </g>
</svg>
